<?xml version="1.0" encoding="UTF-8"?>
<svg id="b" data-name="Camada 2" xmlns="http://www.w3.org/2000/svg" viewBox="0 0 393.9 76.61">
  <defs>
    <style>
      .d {
        fill: #eb0101;
      }

      .d, .e {
        stroke-width: 0px;
      }

      .e {
        fill: #fff;
      }
    </style>
  </defs>
  <g id="c">
    <g>
      <path class="e" d="M16.75,16.78c2.96-1.85,6.27-2.77,9.93-2.77,2.01,0,3.94.28,5.78.83,1.85.55,3.54,1.37,5.06,2.46,1.52,1.09,2.82,2.43,3.9,4.03,1.07,1.59,1.82,3.44,2.26,5.55h7.32c-.55-3.11-1.55-5.88-3.01-8.31-1.46-2.43-3.27-4.5-5.43-6.2-2.16-1.7-4.59-3-7.27-3.88-2.69-.89-5.55-1.33-8.6-1.33-5.16,0-9.74,1.26-13.75,3.78-4.01,2.52-7.17,6.1-9.47,10.74C1.15,26.32,0,31.83,0,38.21s1.15,11.88,3.45,16.53c2.3,4.64,5.46,8.22,9.47,10.74,4.01,2.52,8.6,3.78,13.75,3.78,3.05,0,5.92-.44,8.6-1.33,2.69-.89,5.11-2.18,7.27-3.88,2.16-1.7,3.97-3.77,5.43-6.21,1.46-2.44,2.46-5.2,3.01-8.29h-7.32c-.43,2.09-1.19,3.93-2.26,5.53-1.07,1.6-2.37,2.95-3.9,4.04-1.52,1.09-3.21,1.91-5.06,2.46-1.85.55-3.78.83-5.78.83-3.66,0-6.97-.92-9.93-2.77-2.96-1.85-5.31-4.57-7.05-8.18-1.74-3.6-2.61-8.02-2.61-13.25s.87-9.65,2.61-13.25c1.74-3.6,4.09-6.33,7.05-8.18Z"/>
      <rect class="e" x="58.62" y="23.1" width="6.97" height="45.33"/>
      <path class="e" d="M62.16,6.1c-1.36,0-2.52.46-3.5,1.39-.97.92-1.46,2.04-1.46,3.33s.49,2.41,1.46,3.33c.97.93,2.14,1.39,3.5,1.39s2.52-.46,3.5-1.39c.97-.92,1.46-2.04,1.46-3.33s-.49-2.41-1.46-3.33-2.14-1.39-3.5-1.39Z"/>
      <path class="e" d="M103.69,24.38c-2.3-1.25-4.99-1.87-8.06-1.87-3.42,0-6.22.7-8.38,2.11-2.16,1.41-3.78,3.26-4.84,5.56h-.59v-7.08h-6.73v45.33h6.97v-27.27c0-2.64.5-4.88,1.5-6.73,1-1.85,2.38-3.26,4.12-4.22,1.74-.96,3.72-1.45,5.95-1.45,3.23,0,5.76,1,7.61,3,1.85,2,2.77,4.78,2.77,8.34v28.33h6.97v-28.81c0-3.86-.64-7.05-1.92-9.58-1.28-2.53-3.07-4.42-5.37-5.67Z"/>
      <path class="e" d="M152.07,27.51c-1.89-1.76-3.98-3.03-6.29-3.82-2.3-.79-4.63-1.18-7-1.18-4.09,0-7.67,1-10.73,3-3.06,2-5.44,4.77-7.14,8.32-1.7,3.55-2.55,7.65-2.55,12.29s.85,8.71,2.55,12.2c1.7,3.49,4.13,6.21,7.29,8.15,3.16,1.94,6.92,2.91,11.29,2.91,3.07,0,5.83-.48,8.29-1.43,2.46-.95,4.53-2.29,6.2-4.01,1.67-1.72,2.86-3.72,3.57-6.01l-6.73-1.89c-.59,1.57-1.43,2.89-2.51,3.94-1.08,1.05-2.37,1.84-3.85,2.36-1.49.52-3.14.78-4.97.78-2.81,0-5.28-.61-7.41-1.84-2.12-1.23-3.78-3.03-4.97-5.4-1.08-2.14-1.64-4.74-1.74-7.75h32.89v-2.95c0-4.23-.56-7.79-1.68-10.68-1.12-2.89-2.63-5.22-4.52-6.98ZM125.39,42.1c.13-2.1.64-4.09,1.56-5.96,1.08-2.18,2.63-3.96,4.65-5.33,2.02-1.37,4.41-2.05,7.19-2.05,2.52,0,4.71.58,6.57,1.74,1.86,1.16,3.3,2.75,4.31,4.75,1.01,2.01,1.52,4.29,1.52,6.85h-25.8Z"/>
      <polygon class="d" points="173.91 41.4 201.18 41.4 201.18 34.9 173.91 34.9 173.91 14.48 203.07 14.48 203.07 7.99 166.59 7.99 166.59 68.43 203.55 68.43 203.55 61.94 173.91 61.94 173.91 41.4"/>
      <path class="d" d="M240.01,25.13c-1.78-1.06-3.62-1.77-5.52-2.11-1.9-.34-3.58-.52-5.03-.52-2.28,0-4.6.31-6.95.93s-4.52,1.7-6.49,3.25c-1.98,1.54-3.56,3.69-4.74,6.45l6.61,2.36c.77-1.65,2.1-3.21,3.98-4.66,1.89-1.46,4.5-2.18,7.82-2.18s5.6.81,7.19,2.42c1.58,1.61,2.38,3.88,2.38,6.79v.24c0,1.12-.4,1.91-1.2,2.36s-2.06.77-3.78.96c-1.72.19-3.96.46-6.71.81-2.11.28-4.2.64-6.27,1.11-2.08.46-3.97,1.16-5.68,2.08s-3.08,2.2-4.1,3.82c-1.02,1.62-1.53,3.73-1.53,6.33,0,2.95.69,5.47,2.07,7.54,1.38,2.08,3.24,3.66,5.58,4.75,2.34,1.09,4.95,1.64,7.82,1.64,2.64,0,4.87-.39,6.7-1.18,1.83-.79,3.29-1.74,4.4-2.86,1.1-1.12,1.89-2.17,2.36-3.16h.35v6.14h6.96v-29.87c0-3.6-.59-6.47-1.77-8.62-1.18-2.14-2.66-3.75-4.44-4.81ZM239.26,52.02c0,1.89-.49,3.69-1.46,5.4-.97,1.71-2.41,3.11-4.31,4.19-1.9,1.08-4.23,1.62-6.98,1.62s-5.06-.61-6.86-1.84c-1.8-1.23-2.7-3.05-2.7-5.47,0-1.77.48-3.17,1.43-4.21.95-1.03,2.21-1.81,3.78-2.33,1.56-.52,3.25-.9,5.06-1.14.75-.1,1.73-.22,2.94-.37,1.21-.15,2.46-.32,3.75-.53,1.29-.21,2.43-.45,3.42-.74s1.64-.61,1.93-.96v6.38Z"/>
      <path class="d" d="M276.63,43.52l-6.73-1.65c-2.68-.67-4.64-1.5-5.9-2.51-1.26-1-1.89-2.37-1.89-4.1,0-1.95.92-3.56,2.76-4.83s4.15-1.9,6.92-1.9c2.03,0,3.69.32,4.99.97,1.3.65,2.33,1.47,3.08,2.46.76.99,1.33,2.01,1.73,3.05l6.26-1.77c-1.08-3.23-2.91-5.82-5.47-7.79-2.57-1.97-6.09-2.95-10.58-2.95-3.19,0-6.04.56-8.54,1.68s-4.49,2.67-5.93,4.63c-1.45,1.97-2.17,4.23-2.17,6.79,0,3.13.97,5.73,2.91,7.81,1.94,2.08,4.98,3.61,9.13,4.59l7.56,1.77c2.28.53,3.97,1.33,5.08,2.41,1.1,1.07,1.65,2.4,1.65,3.97,0,1.95-.96,3.62-2.88,5-1.92,1.39-4.5,2.08-7.75,2.08-2.85,0-5.16-.61-6.92-1.83-1.76-1.22-2.96-3.05-3.59-5.49l-6.61,1.65c.81,3.86,2.72,6.79,5.75,8.79,3.03,2.01,6.86,3.01,11.48,3.01,3.52,0,6.61-.59,9.27-1.77,2.66-1.18,4.73-2.79,6.21-4.84,1.49-2.05,2.23-4.37,2.23-6.97,0-3.17-.99-5.76-2.98-7.78-1.99-2.02-5.01-3.52-9.06-4.5Z"/>
      <path class="d" d="M333.72,45.17c0-4.23-.56-7.79-1.68-10.68-1.12-2.89-2.63-5.22-4.52-6.98-1.89-1.76-3.98-3.03-6.29-3.82-2.3-.79-4.63-1.18-7-1.18-4.09,0-7.67,1-10.73,3-3.06,2-5.44,4.77-7.14,8.32-1.7,3.55-2.55,7.65-2.55,12.29s.85,8.71,2.55,12.2c1.7,3.49,4.13,6.21,7.29,8.15,3.16,1.94,6.92,2.91,11.29,2.91,3.07,0,5.83-.48,8.29-1.43,2.46-.95,4.53-2.29,6.2-4.01,1.67-1.72,2.86-3.72,3.57-6.01l-6.73-1.89c-.59,1.57-1.43,2.89-2.51,3.94-1.08,1.05-2.37,1.84-3.85,2.36-1.49.52-3.14.78-4.97.78-2.81,0-5.28-.61-7.41-1.84-2.12-1.23-3.78-3.03-4.97-5.4-1.08-2.14-1.64-4.74-1.74-7.75h32.89v-2.95ZM300.84,42.1c.13-2.1.64-4.09,1.56-5.96,1.08-2.18,2.63-3.96,4.65-5.33,2.02-1.37,4.41-2.05,7.19-2.05,2.52,0,4.71.58,6.57,1.74,1.86,1.16,3.3,2.75,4.31,4.75,1.01,2.01,1.52,4.29,1.52,6.85h-25.8Z"/>
    </g>
    <g>
      <path class="e" d="M392.24,19.45c-.68-.27-1.36-.54-2.03-.81-.95,1.52-2.15,2.12-3.5,1.64-.56-.19-1.09-.6-1.49-1.04-.73-.79-.68-1.78-.44-2.76-.74-.3-1.42-.56-2.08-.83-.93,1.51-2.21,2.14-3.53,1.64-.58-.22-1.15-.64-1.54-1.12-.63-.76-.6-1.72-.35-2.68-.71-.28-1.38-.54-2.02-.8-1.38,1.71-2.51,2.14-3.93,1.52-1.31-.57-1.82-1.76-1.57-3.71-.68-.27-1.37-.54-2.06-.82-.86,1.55-2.12,2.08-3.79,1.63-6.82,17.14-13.63,34.26-20.44,51.37,1.71.99,2.15,2.38,1.48,4.15.74.29,1.42.56,2.09.82.92-1.84,2.32-2.57,3.84-1.96,1.81.72,2.25,2.44,1.59,4.13.68.27,1.37.54,2.05.81,1.05-1.9,2.41-2.55,3.96-1.93,1.5.61,2.04,2.04,1.49,4.1.7.27,1.4.55,2.09.83.82-1.82,2.21-2.58,3.74-1.97.6.24,1.18.75,1.56,1.28.61.86.48,1.86.07,2.83.74.3,1.43.57,2.11.84.95-1.9,2.31-2.56,3.84-1.91.04-.03.09-.05.13-.08.07-.22.14-.45.23-.67,6.6-16.59,13.21-33.18,19.81-49.76.12-.31.24-.62.35-.92-1.56-1.03-1.81-1.61-1.66-3.82ZM371.09,48.94l-8.35-3.37c-.4-.16-.49-.68-.18-.97l7.82-7.35c.37-.34.96-.1.99.4l.52,10.72c.02.43-.41.73-.8.57Z"/>
      <path class="e" d="M344.32,7.6c1.73-.52,2.48-1.64,2.41-3.35.74-.12,1.47-.24,2.18-.35.77,1.84,1.92,2.61,3.44,2.34,1.43-.25,2.21-1.3,2.39-3.29.68-.12,1.38-.23,2.13-.36.62,1.74,1.77,2.69,3.67,2.29,1.38-.29,2.08-1.4,2.15-3.23.71-.12,1.43-.23,2.2-.36.27.89.7,1.69,1.56,2.04.55.23,1.21.35,1.8.29,1.43-.13,2.19-1.2,2.45-3.29.68-.11,1.38-.22,2.13-.35.5,1.64,1.59,2.47,3.36,2.39.54,3.29,1.07,6.56,1.62,9.93-1.17-.46-2.23-.87-3.31-1.3-.43.76-.51,1.76-1.47,2.05-.34.1-.78.09-1.12-.03-.65-.22-1.04-.76-.98-1.43.05-.6.31-1.19.48-1.83-1.46-.58-2.92-1.16-4.22-1.68-.58.71-.97,1.6-1.63,1.89-.63.27-1.54-.08-2.42-.17-4.29,10.78-8.64,21.7-12.99,32.62h-.14c-1.89-11.6-3.79-23.2-5.69-34.84Z"/>
      <path class="e" d="M382.73,60.7c-.75.12-1.46.24-2.27.37.02-.27-.02-.51.06-.7,1.16-2.94,2.33-5.87,3.51-8.8.01-.04.06-.06.16-.15.31,1.87.6,3.7.9,5.51-2.05.96-2.44,1.57-2.35,3.78Z"/>
    </g>
  </g>
</svg>